<svg width="24" height="34" viewBox="0 0 24 34" fill="none" xmlns="http://www.w3.org/2000/svg">
<path d="M3.72 33.3521H2.82C2.0729 33.3493 1.35715 33.0287 0.82887 32.4603C0.300588 31.892 0.0026353 31.1219 0 30.3181V3.03396C0.0026353 2.23018 0.300588 1.46013 0.82887 0.89176C1.35715 0.323395 2.0729 0.00283525 2.82 0H3.72C4.72163 0.208959 5.64156 0.737567 6.36 1.51698L22.55 13.8465C23.2474 14.597 23.6391 15.6148 23.6391 16.676C23.6391 17.7373 23.2474 18.7551 22.55 19.5056L22.43 19.6239L6.36 31.8351C5.64156 32.6145 4.72163 33.1431 3.72 33.3521ZM3.66 2.15175H2.82C2.60242 2.15731 2.39534 2.2535 2.24238 2.42008C2.08943 2.58665 2.00253 2.81059 2 3.04472V30.3181C2 30.5521 2.08639 30.7765 2.24017 30.942C2.39395 31.1074 2.60252 31.2003 2.82 31.2003H3.72C4.18885 30.9475 4.62021 30.6212 5 30.2321L5.17 30.1245L21.17 17.9456C21.4588 17.6063 21.619 17.163 21.619 16.7029C21.619 16.2429 21.4588 15.7996 21.17 15.4603L5 3.10928C4.6043 2.71438 4.15177 2.39102 3.66 2.15175Z" fill="#49D12E"/>
</svg>
